<svg width="55" height="55" viewBox="0 0 70 70" fill="none" xmlns="http://www.w3.org/2000/svg">
    <path d="M62.5 0h-55C3.36 0 0 3.36 0 7.5v55C0 66.64 3.36 70 7.5 70h55c4.14 0 7.5-3.36 7.5-7.5v-55C70 3.36 66.64 0 62.5 0Zm-5 39.375a1.88 1.88 0 0 1-1.875 1.875H41.25v14.375a1.88 1.88 0 0 1-1.875 1.875h-8.75a1.88 1.88 0 0 1-1.875-1.875V41.25H14.375a1.88 1.88 0 0 1-1.875-1.875v-8.75a1.88 1.88 0 0 1 1.875-1.875H28.75V14.375a1.88 1.88 0 0 1 1.875-1.875h8.75a1.88 1.88 0 0 1 1.875 1.875V28.75h14.375a1.88 1.88 0 0 1 1.875 1.875v8.75Z"
          fill="#fff"/>
</svg>